<svg xmlns="http://www.w3.org/2000/svg" version="1.1" xmlns:xlink="http://www.w3.org/1999/xlink" xmlns:svgjs="http://svgjs.com/svgjs" width="1920" height="1080" preserveAspectRatio="none" viewBox="0 0 1920 1080"><g mask="url(&quot;#SvgjsMask1785&quot;)" fill="none"><rect width="1920" height="1080" x="0" y="0" fill="#0e2a47"></rect><use xlink:href="#SvgjsG1791" transform="translate(0, 0)" fill="#0f457b"></use><use xlink:href="#SvgjsG1791" transform="translate(0, 666.9999999999999)" fill="#0f457b"></use><use xlink:href="#SvgjsG1791" transform="translate(666.9999999999999, 0)" fill="#0f457b"></use><use xlink:href="#SvgjsG1791" transform="translate(666.9999999999999, 666.9999999999999)" fill="#0f457b"></use><use xlink:href="#SvgjsG1791" transform="translate(1333.9999999999998, 0)" fill="#0f457b"></use><use xlink:href="#SvgjsG1791" transform="translate(1333.9999999999998, 666.9999999999999)" fill="#0f457b"></use></g><defs><mask id="SvgjsMask1785"><rect width="1920" height="1080" fill="#ffffff"></rect></mask><g id="SvgjsG1789"><path d="M7.45 12.652S6.4 11.121 3.725 11.121C1.274 11.121 0 11.833 0 11.833V1.937s1.274-0.712 3.725-0.729C6.4 1.19 7.45 2.756 7.45 2.756V12.652z m1.087 0s1.05-1.531 3.725-1.531c2.451 0 3.725 0.712 3.725 0.713V1.937s-1.274-0.712-3.725-0.729c-2.675-0.017-3.725 1.548-3.725 1.548v9.896z"></path><path d="M8.012 15.733S6.4 13.411 3.725 13.411c-2.451 0-3.725 0.712-3.725 0.712v-1.186s1.274-0.712 3.725-0.729c2.675-0.018 4.287 2.34 4.287 2.34V15.733z m0 0s1.612-2.323 4.287-2.323c2.451 0 3.725 0.712 3.725 0.712v-1.185s-1.274-0.712-3.725-0.729c-2.675-0.019-4.287 2.339-4.287 2.339v1.185z"></path></g><g id="SvgjsG1786"><path d="M13.031 12.687V1.875H9.957L9.97 0.071C9.957 0.078 4.189 2.651 4.189 2.651 3.256 3.097 2.919 3.747 2.919 4.632V13.347c0 1.389 1.116 2.528 2.401 2.528h7.737V14.275c-0.948-0.116-0.948-1.469-0.026-1.588z m-7.749 1.422c-0.848-0.005-0.844-1.194 0-1.194h5.399c-0.375 0.278-0.351 0.936 0.051 1.195H5.282z m6.021-2.884H6.577l3.38-1.524V3.628h1.347v7.597h-0.001z" fill-rule="evenodd"></path></g><g id="SvgjsG1790"><path d="M7.493 4.681c1.279 0 2.312-1.051 2.312-2.343C9.805 1.045 8.772 0 7.493 0S5.18 1.045 5.18 2.338c0 1.291 1.034 2.342 2.313 2.343z m2.249 0.569c1.058 0.038 1.503 0.894 1.503 0.895l3.415 4.737a1.331 1.331 0 0 1 0.224 0.745c0 0.737-0.59 1.335-1.319 1.334-0.174 0-0.333-0.039-0.484-0.096l-2.061-0.582v2.079H3.864V12.283l-2.061 0.581a1.308 1.308 0 0 1-0.485 0.097C0.589 12.962 0 12.363 0 11.626c0-0.278 0.082-0.535 0.229-0.745l3.413-4.736s0.448-0.857 1.501-0.895H9.742zM7.443 12.91l2.67-0.897-0.058-0.012c-1.844-0.547-1.127-3.009 0.712-2.459l0.253 0.089v-2.779l-3.577 1.18-3.579-1.18V9.63l0.252-0.089c1.843-0.55 2.561 1.913 0.717 2.459l-0.06 0.013 2.67 0.897zM14.793 16c0.183 0 0.33-0.148 0.33-0.333a0.33 0.33 0 0 0-0.33-0.333H0.352c-0.179 0-0.329 0.147-0.329 0.333 0 0.185 0.15 0.333 0.329 0.333h14.441z"></path></g><g id="SvgjsG1787"><path d="M11.974 14.95h-0.243c-0.142-0.162-0.195-0.364-0.152-0.614 0.071-0.413 0.364-0.754 0.504-0.803l-0.002-0.005a0.525 0.525 0 0 0 0.346-0.491l0.01-10.776c0-0.289-0.234-0.525-0.517-0.527 0 0-2.157-0.002-2.749-0.006l0.003-1.204c0-0.213-0.123-0.403-0.318-0.485a0.517 0.517 0 0 0-0.564 0.11L4.684 3.773C4.051 4.41 3.55 5.613 3.549 6.518L3.52 14.057c-0.002 1.054 0.844 1.918 1.892 1.923l6.56 0.02c0.285 0 0.518-0.235 0.518-0.521v-0.002c0-0.291-0.229-0.525-0.516-0.526M11.398 2.784c0 0.899-0.008 8.829-0.01 9.73h-5.912l3.702-3.137-0.007-6.597c0.336 0.002 1.916 0.004 2.227 0.004M4.557 14.06s0.002-0.434 0.002-0.498H10.75c-0.089 0.19-0.16 0.391-0.194 0.594-0.049 0.28-0.024 0.542 0.038 0.79l-5.179-0.016c-0.474 0-0.858-0.389-0.858-0.87"></path></g><g id="SvgjsG1788"><path d="M10.638 8.247l-4.284-0.705 0.615-0.438 1.029 0.143 1.027-0.143 1.613 1.143zM7.998 0.15c0.859 0 1.555 0.696 1.555 1.556 0 0.859-0.548 1.556-1.555 1.555-0.859 0-1.556-0.696-1.557-1.555 0-0.86 0.697-1.556 1.557-1.556z m0.387 11.242v3.759A0.849 0.849 0 0 0 9.234 16a0.849 0.849 0 0 0 0.849-0.849V11.392c0-0.468-0.38-0.849-0.849-0.849a0.85 0.85 0 0 0-0.849 0.849z m5.202 2.146a0.493 0.493 0 0 1-0.492 0.494h-2.604v-2.463h1.126V9.11a0.493 0.493 0 0 1 0.492-0.492h0.986a0.493 0.493 0 0 1 0.492 0.492v4.429z m-5.609 0.494H2.923a0.493 0.493 0 0 1-0.493-0.494V9.11c0-0.271 0.22-0.492 0.493-0.492h0.985a0.493 0.493 0 0 1 0.493 0.492v2.459h3.577v2.462zM5.316 8.72a0.85 0.85 0 0 0 0.7 0.976l3.709 0.611a0.85 0.85 0 0 0 0.976-0.7c0.076-0.463-0.237-0.9-0.7-0.975L6.292 8.02a0.85 0.85 0 0 0-0.976 0.7z"></path><path d="M7.998 4.499l2.016-0.329v1.418l0.996 0.748c0.096 0.096 0.057 0.207 0.034 0.238-0.057 0.075-0.163 0.09-0.237 0.034l-1.257-0.949a0.577 0.577 0 0 0-0.665 0.942l2.146 1.508c0.1 0.071 0.242 0.118 0.383 0.118 0.12 0 0.263-0.05 0.368-0.124 0.225-0.16 0.308-0.444 0.232-0.706L11.216 5.041c-0.213-0.585-0.75-1.274-1.556-1.275H6.334c-0.806 0-1.343 0.689-1.556 1.275l-0.797 2.356c-0.077 0.262 0.007 0.545 0.232 0.705 0.105 0.075 0.247 0.125 0.367 0.125 0.142 0 0.284-0.047 0.384-0.118l2.147-1.508a0.577 0.577 0 0 0-0.666-0.942l-1.257 0.949a0.17 0.17 0 0 1-0.237-0.034c-0.023-0.031-0.062-0.141 0.034-0.237 0 0 0.675-0.507 0.996-0.749v-1.418l2.017 0.329z"></path></g><g id="SvgjsG1791"><use xlink:href="#SvgjsG1786" transform="translate(0, 0) scale(2.3)" fill="#0f457b"></use><use xlink:href="#SvgjsG1787" transform="translate(0, 66.69999999999999) scale(2.3)" fill="#0f457b"></use><use xlink:href="#SvgjsG1788" transform="translate(0, 133.39999999999998) scale(2.3)" fill="#0f457b"></use><use xlink:href="#SvgjsG1788" transform="translate(0, 200.09999999999997) scale(2.3)" fill="#0f457b"></use><use xlink:href="#SvgjsG1788" transform="translate(0, 266.79999999999995) scale(2.3)" fill="#0f457b"></use><use xlink:href="#SvgjsG1789" transform="translate(0, 333.49999999999994) scale(2.3)" fill="#0f457b"></use><use xlink:href="#SvgjsG1790" transform="translate(0, 400.19999999999993) scale(2.3)" fill="#0f457b"></use><use xlink:href="#SvgjsG1790" transform="translate(0, 466.8999999999999) scale(2.3)" fill="#0f457b"></use><use xlink:href="#SvgjsG1790" transform="translate(0, 533.5999999999999) scale(2.3)" fill="#0f457b"></use><use xlink:href="#SvgjsG1787" transform="translate(0, 600.3) scale(2.3)" fill="#0f457b"></use><use xlink:href="#SvgjsG1788" transform="translate(66.69999999999999, 0) scale(2.3)" fill="#0f457b"></use><use xlink:href="#SvgjsG1786" transform="translate(66.69999999999999, 66.69999999999999) scale(2.3)" fill="#0f457b"></use><use xlink:href="#SvgjsG1787" transform="translate(66.69999999999999, 133.39999999999998) scale(2.3)" fill="#0f457b"></use><use xlink:href="#SvgjsG1787" transform="translate(66.69999999999999, 200.09999999999997) scale(2.3)" fill="#0f457b"></use><use xlink:href="#SvgjsG1786" transform="translate(66.69999999999999, 266.79999999999995) scale(2.3)" fill="#0f457b"></use><use xlink:href="#SvgjsG1789" transform="translate(66.69999999999999, 333.49999999999994) scale(2.3)" fill="#0f457b"></use><use xlink:href="#SvgjsG1789" transform="translate(66.69999999999999, 400.19999999999993) scale(2.3)" fill="#0f457b"></use><use xlink:href="#SvgjsG1790" transform="translate(66.69999999999999, 466.8999999999999) scale(2.3)" fill="#0f457b"></use><use xlink:href="#SvgjsG1786" transform="translate(66.69999999999999, 533.5999999999999) scale(2.3)" fill="#0f457b"></use><use xlink:href="#SvgjsG1787" transform="translate(66.69999999999999, 600.3) scale(2.3)" fill="#0f457b"></use><use xlink:href="#SvgjsG1788" transform="translate(133.39999999999998, 0) scale(2.3)" fill="#0f457b"></use><use xlink:href="#SvgjsG1786" transform="translate(133.39999999999998, 66.69999999999999) scale(2.3)" fill="#0f457b"></use><use xlink:href="#SvgjsG1789" transform="translate(133.39999999999998, 133.39999999999998) scale(2.3)" fill="#0f457b"></use><use xlink:href="#SvgjsG1787" transform="translate(133.39999999999998, 200.09999999999997) scale(2.3)" fill="#0f457b"></use><use xlink:href="#SvgjsG1789" transform="translate(133.39999999999998, 266.79999999999995) scale(2.3)" fill="#0f457b"></use><use xlink:href="#SvgjsG1790" transform="translate(133.39999999999998, 333.49999999999994) scale(2.3)" fill="#0f457b"></use><use xlink:href="#SvgjsG1788" transform="translate(133.39999999999998, 400.19999999999993) scale(2.3)" fill="#0f457b"></use><use xlink:href="#SvgjsG1789" transform="translate(133.39999999999998, 466.8999999999999) scale(2.3)" fill="#0f457b"></use><use xlink:href="#SvgjsG1788" transform="translate(133.39999999999998, 533.5999999999999) scale(2.3)" fill="#0f457b"></use><use xlink:href="#SvgjsG1786" transform="translate(133.39999999999998, 600.3) scale(2.3)" fill="#0f457b"></use><use xlink:href="#SvgjsG1789" transform="translate(200.09999999999997, 0) scale(2.3)" fill="#0f457b"></use><use xlink:href="#SvgjsG1788" transform="translate(200.09999999999997, 66.69999999999999) scale(2.3)" fill="#0f457b"></use><use xlink:href="#SvgjsG1788" transform="translate(200.09999999999997, 133.39999999999998) scale(2.3)" fill="#0f457b"></use><use xlink:href="#SvgjsG1786" transform="translate(200.09999999999997, 200.09999999999997) scale(2.3)" fill="#0f457b"></use><use xlink:href="#SvgjsG1790" transform="translate(200.09999999999997, 266.79999999999995) scale(2.3)" fill="#0f457b"></use><use xlink:href="#SvgjsG1786" transform="translate(200.09999999999997, 333.49999999999994) scale(2.3)" fill="#0f457b"></use><use xlink:href="#SvgjsG1787" transform="translate(200.09999999999997, 400.19999999999993) scale(2.3)" fill="#0f457b"></use><use xlink:href="#SvgjsG1789" transform="translate(200.09999999999997, 466.8999999999999) scale(2.3)" fill="#0f457b"></use><use xlink:href="#SvgjsG1789" transform="translate(200.09999999999997, 533.5999999999999) scale(2.3)" fill="#0f457b"></use><use xlink:href="#SvgjsG1788" transform="translate(200.09999999999997, 600.3) scale(2.3)" fill="#0f457b"></use><use xlink:href="#SvgjsG1789" transform="translate(266.79999999999995, 0) scale(2.3)" fill="#0f457b"></use><use xlink:href="#SvgjsG1789" transform="translate(266.79999999999995, 66.69999999999999) scale(2.3)" fill="#0f457b"></use><use xlink:href="#SvgjsG1789" transform="translate(266.79999999999995, 133.39999999999998) scale(2.3)" fill="#0f457b"></use><use xlink:href="#SvgjsG1788" transform="translate(266.79999999999995, 200.09999999999997) scale(2.3)" fill="#0f457b"></use><use xlink:href="#SvgjsG1789" transform="translate(266.79999999999995, 266.79999999999995) scale(2.3)" fill="#0f457b"></use><use xlink:href="#SvgjsG1787" transform="translate(266.79999999999995, 333.49999999999994) scale(2.3)" fill="#0f457b"></use><use xlink:href="#SvgjsG1789" transform="translate(266.79999999999995, 400.19999999999993) scale(2.3)" fill="#0f457b"></use><use xlink:href="#SvgjsG1787" transform="translate(266.79999999999995, 466.8999999999999) scale(2.3)" fill="#0f457b"></use><use xlink:href="#SvgjsG1789" transform="translate(266.79999999999995, 533.5999999999999) scale(2.3)" fill="#0f457b"></use><use xlink:href="#SvgjsG1787" transform="translate(266.79999999999995, 600.3) scale(2.3)" fill="#0f457b"></use><use xlink:href="#SvgjsG1789" transform="translate(333.49999999999994, 0) scale(2.3)" fill="#0f457b"></use><use xlink:href="#SvgjsG1788" transform="translate(333.49999999999994, 66.69999999999999) scale(2.3)" fill="#0f457b"></use><use xlink:href="#SvgjsG1788" transform="translate(333.49999999999994, 133.39999999999998) scale(2.3)" fill="#0f457b"></use><use xlink:href="#SvgjsG1786" transform="translate(333.49999999999994, 200.09999999999997) scale(2.3)" fill="#0f457b"></use><use xlink:href="#SvgjsG1790" transform="translate(333.49999999999994, 266.79999999999995) scale(2.3)" fill="#0f457b"></use><use xlink:href="#SvgjsG1790" transform="translate(333.49999999999994, 333.49999999999994) scale(2.3)" fill="#0f457b"></use><use xlink:href="#SvgjsG1786" transform="translate(333.49999999999994, 400.19999999999993) scale(2.3)" fill="#0f457b"></use><use xlink:href="#SvgjsG1788" transform="translate(333.49999999999994, 466.8999999999999) scale(2.3)" fill="#0f457b"></use><use xlink:href="#SvgjsG1786" transform="translate(333.49999999999994, 533.5999999999999) scale(2.3)" fill="#0f457b"></use><use xlink:href="#SvgjsG1788" transform="translate(333.49999999999994, 600.3) scale(2.3)" fill="#0f457b"></use><use xlink:href="#SvgjsG1790" transform="translate(400.19999999999993, 0) scale(2.3)" fill="#0f457b"></use><use xlink:href="#SvgjsG1788" transform="translate(400.19999999999993, 66.69999999999999) scale(2.3)" fill="#0f457b"></use><use xlink:href="#SvgjsG1789" transform="translate(400.19999999999993, 133.39999999999998) scale(2.3)" fill="#0f457b"></use><use xlink:href="#SvgjsG1788" transform="translate(400.19999999999993, 200.09999999999997) scale(2.3)" fill="#0f457b"></use><use xlink:href="#SvgjsG1789" transform="translate(400.19999999999993, 266.79999999999995) scale(2.3)" fill="#0f457b"></use><use xlink:href="#SvgjsG1788" transform="translate(400.19999999999993, 333.49999999999994) scale(2.3)" fill="#0f457b"></use><use xlink:href="#SvgjsG1787" transform="translate(400.19999999999993, 400.19999999999993) scale(2.3)" fill="#0f457b"></use><use xlink:href="#SvgjsG1787" transform="translate(400.19999999999993, 466.8999999999999) scale(2.3)" fill="#0f457b"></use><use xlink:href="#SvgjsG1786" transform="translate(400.19999999999993, 533.5999999999999) scale(2.3)" fill="#0f457b"></use><use xlink:href="#SvgjsG1790" transform="translate(400.19999999999993, 600.3) scale(2.3)" fill="#0f457b"></use><use xlink:href="#SvgjsG1790" transform="translate(466.8999999999999, 0) scale(2.3)" fill="#0f457b"></use><use xlink:href="#SvgjsG1789" transform="translate(466.8999999999999, 66.69999999999999) scale(2.3)" fill="#0f457b"></use><use xlink:href="#SvgjsG1790" transform="translate(466.8999999999999, 133.39999999999998) scale(2.3)" fill="#0f457b"></use><use xlink:href="#SvgjsG1787" transform="translate(466.8999999999999, 200.09999999999997) scale(2.3)" fill="#0f457b"></use><use xlink:href="#SvgjsG1787" transform="translate(466.8999999999999, 266.79999999999995) scale(2.3)" fill="#0f457b"></use><use xlink:href="#SvgjsG1786" transform="translate(466.8999999999999, 333.49999999999994) scale(2.3)" fill="#0f457b"></use><use xlink:href="#SvgjsG1790" transform="translate(466.8999999999999, 400.19999999999993) scale(2.3)" fill="#0f457b"></use><use xlink:href="#SvgjsG1788" transform="translate(466.8999999999999, 466.8999999999999) scale(2.3)" fill="#0f457b"></use><use xlink:href="#SvgjsG1789" transform="translate(466.8999999999999, 533.5999999999999) scale(2.3)" fill="#0f457b"></use><use xlink:href="#SvgjsG1787" transform="translate(466.8999999999999, 600.3) scale(2.3)" fill="#0f457b"></use><use xlink:href="#SvgjsG1790" transform="translate(533.5999999999999, 0) scale(2.3)" fill="#0f457b"></use><use xlink:href="#SvgjsG1790" transform="translate(533.5999999999999, 66.69999999999999) scale(2.3)" fill="#0f457b"></use><use xlink:href="#SvgjsG1790" transform="translate(533.5999999999999, 133.39999999999998) scale(2.3)" fill="#0f457b"></use><use xlink:href="#SvgjsG1787" transform="translate(533.5999999999999, 200.09999999999997) scale(2.3)" fill="#0f457b"></use><use xlink:href="#SvgjsG1790" transform="translate(533.5999999999999, 266.79999999999995) scale(2.3)" fill="#0f457b"></use><use xlink:href="#SvgjsG1789" transform="translate(533.5999999999999, 333.49999999999994) scale(2.3)" fill="#0f457b"></use><use xlink:href="#SvgjsG1786" transform="translate(533.5999999999999, 400.19999999999993) scale(2.3)" fill="#0f457b"></use><use xlink:href="#SvgjsG1787" transform="translate(533.5999999999999, 466.8999999999999) scale(2.3)" fill="#0f457b"></use><use xlink:href="#SvgjsG1789" transform="translate(533.5999999999999, 533.5999999999999) scale(2.3)" fill="#0f457b"></use><use xlink:href="#SvgjsG1788" transform="translate(533.5999999999999, 600.3) scale(2.3)" fill="#0f457b"></use><use xlink:href="#SvgjsG1790" transform="translate(600.3, 0) scale(2.3)" fill="#0f457b"></use><use xlink:href="#SvgjsG1788" transform="translate(600.3, 66.69999999999999) scale(2.3)" fill="#0f457b"></use><use xlink:href="#SvgjsG1788" transform="translate(600.3, 133.39999999999998) scale(2.3)" fill="#0f457b"></use><use xlink:href="#SvgjsG1786" transform="translate(600.3, 200.09999999999997) scale(2.3)" fill="#0f457b"></use><use xlink:href="#SvgjsG1786" transform="translate(600.3, 266.79999999999995) scale(2.3)" fill="#0f457b"></use><use xlink:href="#SvgjsG1787" transform="translate(600.3, 333.49999999999994) scale(2.3)" fill="#0f457b"></use><use xlink:href="#SvgjsG1789" transform="translate(600.3, 400.19999999999993) scale(2.3)" fill="#0f457b"></use><use xlink:href="#SvgjsG1786" transform="translate(600.3, 466.8999999999999) scale(2.3)" fill="#0f457b"></use><use xlink:href="#SvgjsG1788" transform="translate(600.3, 533.5999999999999) scale(2.3)" fill="#0f457b"></use><use xlink:href="#SvgjsG1790" transform="translate(600.3, 600.3) scale(2.3)" fill="#0f457b"></use></g></defs></svg>